<svg width="113" height="32" viewBox="0 0 113 32" fill="none" xmlns="http://www.w3.org/2000/svg">
<path d="M1.8 27.128C2.328 27.464 2.904 27.608 3.528 27.608C6.072 27.608 9.24 25.16 10.584 23.96C11.208 25.688 12.408 26.6 13.992 26.984C16.008 27.464 19.32 25.928 20.52 24.728C23.16 22.088 22.44 20.888 21.624 21.704C19.896 23.624 15.768 26.072 13.32 25.592C12.456 25.352 12.216 24.392 12.264 23.576C12.36 22.664 12.792 21.8 13.032 21.08C13.368 20.504 11.736 19.448 11.448 19.976L10.632 21.08H10.584C9.384 20.552 8.04 20.264 6.696 20.264C5.016 20.264 3.384 20.696 2.088 21.56C0.888 22.376 0.36 23.432 0.36 24.488C0.36 25.496 0.84 26.408 1.8 27.128ZM2.664 26.072C1.944 26.024 1.656 25.496 1.8 24.92C2.328 22.712 5.496 21.8 7.896 21.8C8.616 21.8 9.288 21.896 9.768 22.04C8.088 23.816 4.968 25.784 2.664 26.072ZM21.7387 26.072C21.8827 26.648 23.1308 27.608 23.5148 27.272C25.3867 25.64 26.7308 23.096 29.1788 21.512C29.6108 23.384 29.8988 24.488 30.3788 25.544C30.6668 26.072 31.5788 26.552 31.9628 26.36C33.2588 25.496 34.4588 24.536 36.6188 22.76C36.7628 23.192 37.0028 23.72 37.3388 24.2C37.7708 24.776 38.2508 25.352 38.9708 25.832C40.0268 26.504 41.1788 26.792 42.1868 26.792C44.9228 26.792 48.0428 24.44 48.7628 23.144C49.3387 22.088 48.7148 21.704 48.5708 21.944C47.8988 23.096 42.6668 25.448 41.1308 25.448C40.4588 25.448 39.8828 25.208 39.3548 24.872C38.3948 24.056 38.1548 22.328 37.6748 21.368C37.3388 20.84 36.4268 20.36 36.0908 20.6L31.4348 24.392C31.0028 22.712 30.9548 21.704 30.4268 20.456C30.0428 19.928 29.2268 19.448 28.8428 19.64C26.7788 20.648 25.1468 22.568 23.4668 24.392C23.4188 22.808 23.6108 21.944 23.5628 20.696C23.7068 20.072 22.1227 19.016 21.9787 19.832C21.7867 21.032 21.6427 22.424 21.6427 23.96C21.6427 24.632 21.6907 25.352 21.7387 26.072ZM48.5344 27.128C49.0624 27.464 49.6384 27.608 50.2624 27.608C52.8064 27.608 55.9744 25.16 57.3184 23.96C57.9424 25.688 59.1424 26.6 60.7264 26.984C62.7424 27.464 66.0544 25.928 67.2544 24.728C69.8944 22.088 69.1744 20.888 68.3584 21.704C66.6304 23.624 62.5024 26.072 60.0544 25.592C59.1904 25.352 58.9504 24.392 58.9984 23.576C59.0944 22.664 59.5264 21.8 59.7664 21.08C60.1024 20.504 58.4704 19.448 58.1824 19.976L57.3664 21.08H57.3184C56.1184 20.552 54.7744 20.264 53.4304 20.264C51.7504 20.264 50.1184 20.696 48.8224 21.56C47.6224 22.376 47.0944 23.432 47.0944 24.488C47.0944 25.496 47.5744 26.408 48.5344 27.128ZM49.3984 26.072C48.6784 26.024 48.3904 25.496 48.5344 24.92C49.0624 22.712 52.2304 21.8 54.6304 21.8C55.3504 21.8 56.0224 21.896 56.5024 22.04C54.8224 23.816 51.7024 25.784 49.3984 26.072ZM87.0011 23.864C87.8171 23.096 88.3931 21.032 87.7691 21.56C85.8491 23.192 81.7211 25.976 78.2651 26.216C76.2491 26.36 73.8011 25.352 72.9851 24.344C75.2891 23.672 78.6971 20.936 77.9771 19.16C77.7371 18.584 77.0651 17.816 76.0091 17.912C73.2251 18.152 71.1131 21.272 69.5771 23.864C70.0091 14.84 70.1051 7.928 70.2971 1.736C70.2491 1.448 69.8171 1.064 69.2891 0.919998C68.8571 0.727998 68.4251 0.919998 68.4251 1.208C68.3291 7.16 67.8971 16.28 67.8971 24.824C67.8971 26.6 67.9451 28.376 68.0411 30.056C68.3291 30.872 69.6251 31.496 69.6251 30.776C69.6731 28.568 70.2491 26.168 71.3051 24.824C73.1291 27.032 76.0571 27.944 78.4571 27.944C83.0171 27.944 86.0891 24.728 87.0011 23.864ZM76.2011 19.256C76.5371 20.504 73.2731 23.24 72.1211 23.336C73.9931 20.36 75.5771 19.016 76.2011 19.256ZM87.3469 27.128C87.8749 27.464 88.4509 27.608 89.0749 27.608C91.6189 27.608 94.7869 25.16 96.1309 23.96C96.7549 25.688 97.9549 26.6 99.5389 26.984C101.555 27.464 104.867 25.928 106.067 24.728C108.707 22.088 107.987 20.888 107.171 21.704C105.443 23.624 101.315 26.072 98.8669 25.592C98.0029 25.352 97.7629 24.392 97.8109 23.576C97.9069 22.664 98.3389 21.8 98.5789 21.08C98.9149 20.504 97.2829 19.448 96.9949 19.976L96.1789 21.08H96.1309C94.9309 20.552 93.5869 20.264 92.2429 20.264C90.5629 20.264 88.9309 20.696 87.6349 21.56C86.4349 22.376 85.9069 23.432 85.9069 24.488C85.9069 25.496 86.3869 26.408 87.3469 27.128ZM88.2109 26.072C87.4909 26.024 87.2029 25.496 87.3469 24.92C87.8749 22.712 91.0429 21.8 93.4429 21.8C94.1629 21.8 94.8349 21.896 95.3149 22.04C93.6349 23.816 90.5149 25.784 88.2109 26.072ZM110.742 27.464C111.078 27.896 111.75 27.896 112.278 27.464C112.806 27.032 112.95 26.312 112.614 25.88C112.278 25.448 111.606 25.448 111.078 25.88C110.55 26.312 110.406 27.032 110.742 27.464Z" fill="black"/>
</svg>
