<svg width="20" height="20" viewBox="0 0 20 20" fill="none" xmlns="http://www.w3.org/2000/svg">
<path d="M13.6334 11.6666C13.7 11.1166 13.75 10.5666 13.75 9.99996C13.75 9.43329 13.7 8.88329 13.6334 8.33329H16.45C16.5834 8.86663 16.6667 9.42496 16.6667 9.99996C16.6667 10.575 16.5834 11.1333 16.45 11.6666H13.6334ZM12.1584 16.3C12.6584 15.375 13.0417 14.375 13.3084 13.3333H15.7667C14.9593 14.7235 13.6784 15.7766 12.1584 16.3ZM11.95 11.6666H8.05002C7.96669 11.1166 7.91669 10.5666 7.91669 9.99996C7.91669 9.43329 7.96669 8.87496 8.05002 8.33329H11.95C12.025 8.87496 12.0834 9.43329 12.0834 9.99996C12.0834 10.5666 12.025 11.1166 11.95 11.6666ZM10 16.6333C9.30835 15.6333 8.75002 14.525 8.40835 13.3333H11.5917C11.25 14.525 10.6917 15.6333 10 16.6333ZM6.66669 6.66663H4.23335C5.0324 5.27264 6.31235 4.21786 7.83335 3.69996C7.33335 4.62496 6.95835 5.62496 6.66669 6.66663ZM4.23335 13.3333H6.66669C6.95835 14.375 7.33335 15.375 7.83335 16.3C6.31554 15.7763 5.03739 14.7231 4.23335 13.3333ZM3.55002 11.6666C3.41669 11.1333 3.33335 10.575 3.33335 9.99996C3.33335 9.42496 3.41669 8.86663 3.55002 8.33329H6.36669C6.30002 8.88329 6.25002 9.43329 6.25002 9.99996C6.25002 10.5666 6.30002 11.1166 6.36669 11.6666H3.55002ZM10 3.35829C10.6917 4.35829 11.25 5.47496 11.5917 6.66663H8.40835C8.75002 5.47496 9.30835 4.35829 10 3.35829ZM15.7667 6.66663H13.3084C13.0475 5.63451 12.6613 4.63821 12.1584 3.69996C13.6917 4.22496 14.9667 5.28329 15.7667 6.66663ZM10 1.66663C5.39169 1.66663 1.66669 5.41663 1.66669 9.99996C1.66669 12.2101 2.54466 14.3297 4.10746 15.8925C4.88129 16.6663 5.79994 17.2802 6.81099 17.699C7.82204 18.1177 8.90567 18.3333 10 18.3333C12.2102 18.3333 14.3298 17.4553 15.8926 15.8925C17.4554 14.3297 18.3334 12.2101 18.3334 9.99996C18.3334 8.90561 18.1178 7.82198 17.699 6.81093C17.2802 5.79988 16.6664 4.88122 15.8926 4.1074C15.1188 3.33358 14.2001 2.71975 13.189 2.30096C12.178 1.88217 11.0944 1.66663 10 1.66663Z" fill="white"/>
</svg>
