<svg width="32" height="32" viewBox="0 0 32 32" fill="none" xmlns="http://www.w3.org/2000/svg">
<path d="M16 7C13.3516 7 11.0508 8.23828 9.40625 10.0625C9.26953 10.0469 9.14844 10 9 10C6.80078 10 5 11.8008 5 14C3.26953 15.0547 2 16.8359 2 19C2 22.3008 4.69922 25 8 25H13V23H8C5.78125 23 4 21.2188 4 19C4 17.3398 5.00781 15.9219 6.4375 15.3125L7.125 15.0312L7.03125 14.2812C7.01172 14.1172 7 14.0234 7 14C7 12.8828 7.88281 12 9 12C9.14062 12 9.29688 12.0195 9.46875 12.0625L10.0938 12.2188L10.4688 11.7188C11.75 10.0742 13.75 9 16 9C19.2773 9 22.0117 11.2539 22.7812 14.2812L22.9688 15.0625L23.8125 15.0312C24.0234 15.0195 24.0703 15 24 15C26.2188 15 28 16.7812 28 19C28 21.2188 26.2188 23 24 23H19V25H24C27.3008 25 30 22.3008 30 19C30 15.8438 27.5117 13.3164 24.4062 13.0938C23.1836 9.57422 19.9258 7 16 7ZM16 15L12 19H15V27H17V19H20L16 15Z" fill="black" fill-opacity="0.2"/>
</svg>
