<svg width="20" height="21" viewBox="0 0 20 21" fill="none" xmlns="http://www.w3.org/2000/svg">
<g clip-path="url(#clip0_3_186)">
<path d="M10.7833 10.5L15.3889 5.89444C15.4799 5.78816 15.5275 5.65145 15.5221 5.51163C15.5167 5.37181 15.4587 5.23918 15.3598 5.14024C15.2608 5.0413 15.1282 4.98334 14.9884 4.97794C14.8486 4.97254 14.7118 5.02009 14.6056 5.11111L10 9.71666L5.39446 5.10555C5.28984 5.00094 5.14796 4.94217 5.00001 4.94217C4.85207 4.94217 4.71018 5.00094 4.60557 5.10555C4.50095 5.21017 4.44218 5.35205 4.44218 5.5C4.44218 5.64794 4.50095 5.78983 4.60557 5.89444L9.21668 10.5L4.60557 15.1056C4.54741 15.1554 4.50018 15.2166 4.46683 15.2856C4.43349 15.3545 4.41475 15.4296 4.41179 15.5061C4.40884 15.5826 4.42173 15.6589 4.44966 15.7302C4.47759 15.8015 4.51995 15.8662 4.5741 15.9204C4.62824 15.9745 4.69299 16.0169 4.76428 16.0448C4.83557 16.0727 4.91186 16.0856 4.98838 16.0827C5.06489 16.0797 5.13996 16.061 5.20888 16.0276C5.27781 15.9943 5.3391 15.947 5.3889 15.8889L10 11.2833L14.6056 15.8889C14.7118 15.9799 14.8486 16.0275 14.9884 16.0221C15.1282 16.0167 15.2608 15.9587 15.3598 15.8598C15.4587 15.7608 15.5167 15.6282 15.5221 15.4884C15.5275 15.3485 15.4799 15.2118 15.3889 15.1056L10.7833 10.5Z" fill="black"/>
</g>
<defs>
<clipPath id="clip0_3_186">
<rect width="20" height="20" fill="white" transform="translate(0 0.5)"/>
</clipPath>
</defs>
</svg>
